<?xml version="1.0" encoding="utf-8"?>
<!-- Generator: Adobe Illustrator 23.1.0, SVG Export Plug-In . SVG Version: 6.00 Build 0)  -->
<svg version="1.1" id="Layer_1" xmlns="http://www.w3.org/2000/svg" xmlns:xlink="http://www.w3.org/1999/xlink" x="0px" y="0px"
	 viewBox="0 0 160 50" style="enable-background:new 0 0 160 50;" xml:space="preserve">
<style type="text/css">
	.st0{fill:#FFFFFF;}
	.st1{fill:none;stroke:#000000;stroke-miterlimit:10;}
</style>
<g>
	<path class="st0" d="M2.1,47.2C1.4,44,2,41.8,2.5,40.8c2.1-5.1,9.3-8.1,17.7-6.7c0.3-2,0.9-3.6,1.7-4.9c4.4-7.5,16.3-10.3,30.1-7.9
		c0.9-1.9,2.4-4.7,4.9-7.4c4.6-5.1,9.8-7.2,13.7-8.6c2.4-0.9,10.3-3.8,19.9-2.9c18.3,1.7,29.3,15.8,31.3,18.4
		c2.2-0.7,5.7-1.6,10-1.5c3.1,0,13.4,0.2,20.6,8.3c7.3,8.2,6.1,18.5,5.9,20.2C106.1,47.6,54.1,47.4,2.1,47.2z"/>
	<path class="st1" d="M58.4,27.1c0.6-3.4,3.4-6,6.7-6.2c3.6-0.2,7,2.4,7.7,6.1"/>
	<path class="st1" d="M100.2,27.2c0.4-3.3,3.3-5.9,6.6-6c3.4-0.1,6.5,2.4,7,5.8"/>
	<path d="M78.7,25.7c4.8,0,9.6-0.1,14.4-0.1c0,3.9-3.2,7.1-7.1,7.2C82.1,32.8,78.8,29.6,78.7,25.7z"/>
</g>
</svg>
