<?xml version="1.0" encoding="utf-8"?>
<!-- Generator: Adobe Illustrator 23.1.0, SVG Export Plug-In . SVG Version: 6.00 Build 0)  -->
<svg version="1.1" id="Layer_1" xmlns="http://www.w3.org/2000/svg" xmlns:xlink="http://www.w3.org/1999/xlink" x="0px" y="0px"
	 viewBox="0 0 1013 250" style="enable-background:new 0 0 1013 250;" xml:space="preserve">
<style type="text/css">
	.st0{fill:#FFFFFF;}
	.st1{fill:none;stroke:#FFFFFF;stroke-width:2.2356;stroke-miterlimit:10;}
	.st2{fill:#4BAF99;}
	.st3{fill:#2A7F6A;}
	.st4{fill:#F5D446;}
	.st5{fill:#F29FA2;}
	.st6{fill:#6CC6B1;}
	.st7{fill:#735B60;}
	.st8{fill:#739DA8;}
	.st9{fill:#CAEAF1;}
	.st10{fill:#C68664;}
	.st11{fill:#3D9B86;}
	.st12{fill:#91CB80;}
	.st13{fill:none;stroke:#AE936C;stroke-width:1.1178;stroke-miterlimit:10;}
</style>
<g>
	<path class="st0" d="M350.7,62.3c-4-4.5-9.8-4.6-11.5-4.6c-2.4-0.1-4.3,0.4-5.6,0.8c-1.1-1.5-7.3-9.4-17.5-10.3
		c-5.4-0.5-9.8,1.1-11.1,1.6c-2.1,0.8-5.1,2-7.7,4.8c-1.4,1.5-2.2,3.1-2.7,4.1c-7.7-1.3-14.4,0.2-16.8,4.4c-0.4,0.7-0.8,1.6-1,2.7
		c-4.7-0.8-8.7,0.9-9.9,3.7c-0.2,0.6-0.6,1.8-0.2,3.6c29.1,0.1,58.1,0.2,87.1,0.3C354.1,72.6,354.8,66.8,350.7,62.3z M305.7,62.3
		c-0.1-1.7-1.6-3-3.2-3c-1.6,0.1-3,1.3-3.1,3c-0.3-0.1-0.6-0.1-1-0.1c0.2-2.1,2-3.8,4.1-3.9c2.2-0.1,4,1.6,4.2,3.8
		C306.5,62.2,306.1,62.3,305.7,62.3z M313.7,65.1c-2.2,0.1-4.1-1.7-4.1-4c2.7,0,5.4-0.1,8-0.1C317.6,63.3,315.9,65.1,313.7,65.1z
		 M328.6,62.3c-0.1-1.7-1.6-3-3.2-3c-1.6,0.1-3,1.3-3.1,3c-0.3-0.1-0.7-0.1-1-0.1c0.2-2.1,2-3.8,4.1-3.9c2.2-0.1,4,1.6,4.2,3.8
		C329.3,62.2,328.9,62.3,328.6,62.3z"/>
</g>
<g>
	<path class="st0" d="M778.9,14.2c-4-4.5-9.8-4.6-11.5-4.6c-2.4-0.1-4.3,0.4-5.6,0.8C760.7,9,754.5,1,744.3,0.1
		c-5.4-0.5-9.8,1.1-11.1,1.6c-2.1,0.8-5.1,2-7.7,4.8c-1.4,1.5-2.2,3.1-2.7,4.1c-7.7-1.3-14.4,0.2-16.8,4.4c-0.4,0.7-0.8,1.6-1,2.7
		c-4.7-0.8-8.7,0.9-9.9,3.7c-0.2,0.6-0.6,1.8-0.2,3.6c29.1,0.1,58.1,0.2,87.1,0.3C782.3,24.6,782.9,18.8,778.9,14.2z M734,14.3
		c-0.1-1.7-1.6-3-3.2-3c-1.6,0.1-3,1.3-3.1,3c-0.3-0.1-0.6-0.1-1-0.1c0.2-2.1,2-3.8,4.1-3.9c2.2-0.1,4,1.6,4.2,3.8
		C734.6,14.2,734.3,14.2,734,14.3z M741.9,17.1c-2.2,0.1-4.1-1.7-4.1-4c2.7,0,5.4-0.1,8-0.1C745.9,15.2,744.1,17.1,741.9,17.1z
		 M756.8,14.3c-0.1-1.7-1.6-3-3.2-3c-1.6,0.1-3,1.3-3.1,3c-0.3-0.1-0.7-0.1-1-0.1c0.2-2.1,2-3.8,4.1-3.9c2.2-0.1,4,1.6,4.2,3.8
		C757.4,14.2,757.1,14.2,756.8,14.3z"/>
</g>
<g>
	<line class="st1" x1="295.5" y1="122.9" x2="295.5" y2="194.4"/>
	<line class="st1" x1="734.7" y1="130.7" x2="734.7" y2="202.2"/>
	<path class="st2" d="M260.4,251.7c1.1-3.9,2.9-9.2,5.6-15.4c9.5-21.9,22.7-35.7,30.8-43.9c17.2-17.5,34-27.3,41.8-31.4
		c5.4-2.9,22.9-11.7,47.7-16.7c33.8-6.8,61.2-2.2,72.5,0.2c30.8,6.4,52.1,19.3,60.2,24.5c19.8,12.9,31.9,26.5,35.7,31
		c16.7,19.6,25.2,39.1,29.6,51.6C476.3,251.7,368.3,251.7,260.4,251.7z"/>
	<path class="st0" d="M539,184.7c6.1-4,14.8-8.9,25.7-13.4c18.9-7.8,35.5-10.6,46.1-11.7c16-1.6,28.6-0.6,34.6,0.2
		c24,2.7,41.6,10.3,49.1,13.9c8.8,4.1,25.7,13.1,42.6,29.7c15.2,15,23.9,29.6,27.6,36.6c2.7,5.1,4.7,8.3,6.1,11.6
		c-62.2,0.1-124.4,0.1-186.6,0.1c-1.1-3.1-2.5-6.1-4.6-10.8c-1.6-3.8-6.3-14-14.4-26C559.7,206.7,551.3,195.8,539,184.7z"/>
	<polygon class="st3" points="680.1,169 668.5,210.9 691.8,210.9 	"/>
	<polygon class="st4" points="702.3,144.9 691.8,184.1 712.7,184.1 	"/>
	<polygon class="st5" points="651.9,140 641.4,174.2 662.4,174.2 	"/>
	<polygon class="st6" points="709.7,124.8 735.8,135.3 735.8,114.3 	"/>
	<polygon class="st5" points="709.7,111.5 735.8,122 735.8,101 	"/>
	<polygon class="st5" points="270.4,124.8 296.6,135.3 296.6,114.3 	"/>
	<polygon class="st6" points="270.4,111.5 296.6,122 296.6,101 	"/>
	<polygon class="st5" points="368.8,134.7 358.8,169 378.7,169 	"/>
	<polygon class="st7" points="396.7,122.6 383.4,133.6 410,133.6 	"/>
	<polygon class="st4" points="319.8,149 310.3,186.3 330.2,186 	"/>
	<polygon class="st3" points="345.5,129.5 335.6,176.4 356.6,176.1 	"/>
	<rect x="386.8" y="133.6" class="st8" width="19.8" height="19.3"/>
	<rect x="389.4" y="136.2" class="st9" width="5.3" height="5.3"/>
	<rect x="399.4" y="136.2" class="st9" width="5.3" height="5.3"/>
	<rect x="389.4" y="144.9" class="st9" width="5.3" height="5.3"/>
	<rect x="399.4" y="144.9" class="st7" width="5.3" height="7.9"/>
	<rect x="400" y="123.7" class="st7" width="5.3" height="9.9"/>
	<polygon class="st7" points="532,68.9 521.7,77.4 542.3,77.4 	"/>
	<rect x="524.3" y="77.4" class="st10" width="15.4" height="15"/>
	<rect x="526.3" y="79.5" class="st9" width="4.1" height="4.1"/>
	<rect x="534" y="79.5" class="st9" width="4.1" height="4.1"/>
	<rect x="526.3" y="86.2" class="st9" width="4.1" height="4.1"/>
	<rect x="534" y="86.2" class="st7" width="4.1" height="6.1"/>
	<rect x="534.6" y="69.7" class="st7" width="4.1" height="7.7"/>
	<path class="st11" d="M412.3,141.9c4.5-6.5,11.4-15,21.2-23.4c5.7-4.9,19.5-15.8,40.4-23.2c6.5-2.3,22.4-7.4,43.4-7.5
		c29.1-0.2,50.2,9.2,54.9,11.3c37.2,17,54.9,48.3,60.6,59.6c-4.7-0.2-9.6-0.1-14.7,0.2c-33.3,2.1-60.1,14.5-78.9,26.2
		c-2.4-2.3-5.9-5.4-10.2-8.8c-18.9-14.9-36.9-21.2-47-24.6C454.4,142.2,429,141.2,412.3,141.9z"/>
	<polygon class="st12" points="482.8,57 472.9,103.9 493.9,103.6 	"/>
	<polygon class="st3" points="578,79.5 567.5,113.7 588.4,113.7 	"/>
	<line class="st13" x1="320.2" y1="195.4" x2="320.2" y2="170.6"/>
	<line class="st13" x1="316.1" y1="176.1" x2="320.2" y2="180.2"/>
	<line class="st13" x1="324.2" y1="173.5" x2="320.2" y2="177.3"/>
	<line class="st13" x1="324.1" y1="178.8" x2="320.2" y2="182.6"/>
	<line class="st13" x1="346.1" y1="185" x2="346.1" y2="160.1"/>
	<line class="st13" x1="342.1" y1="165.7" x2="346.1" y2="169.8"/>
	<line class="st13" x1="350.1" y1="163.1" x2="346.1" y2="166.8"/>
	<line class="st13" x1="350.1" y1="168.4" x2="346.1" y2="172.2"/>
	<line class="st13" x1="479.1" y1="93.3" x2="483.1" y2="97.5"/>
	<line class="st13" x1="487.1" y1="90.7" x2="483.1" y2="94.5"/>
	<line class="st13" x1="487" y1="96.1" x2="483.1" y2="99.8"/>
	<line class="st13" x1="680.1" y1="218.2" x2="680.1" y2="196.1"/>
	<line class="st13" x1="676.1" y1="200.1" x2="680.1" y2="204.3"/>
	<line class="st13" x1="684.2" y1="197.6" x2="680.1" y2="201.3"/>
	<line class="st13" x1="684.1" y1="202.9" x2="680.1" y2="206.6"/>
	<line class="st13" x1="702.7" y1="192.7" x2="702.7" y2="168.3"/>
	<line class="st13" x1="698.6" y1="173.8" x2="702.7" y2="177.9"/>
	<line class="st13" x1="706.7" y1="171.2" x2="702.7" y2="174.9"/>
	<line class="st13" x1="706.6" y1="176.5" x2="702.7" y2="180.3"/>
	<line class="st13" x1="652.4" y1="182.1" x2="652.4" y2="162.3"/>
	<line class="st13" x1="648.3" y1="164.9" x2="652.4" y2="169"/>
	<line class="st13" x1="656.4" y1="162.3" x2="652.4" y2="166"/>
	<line class="st13" x1="656.4" y1="167.6" x2="652.4" y2="171.3"/>
	<line class="st13" x1="578.4" y1="121.7" x2="578.4" y2="101.7"/>
	<line class="st13" x1="574.3" y1="104.2" x2="578.4" y2="108.3"/>
	<line class="st13" x1="582.4" y1="101.6" x2="578.4" y2="105.3"/>
	<line class="st13" x1="582.3" y1="106.9" x2="578.4" y2="110.6"/>
	<line class="st13" x1="369.3" y1="177" x2="369.3" y2="156.8"/>
	<line class="st13" x1="365.3" y1="159.7" x2="369.3" y2="163.8"/>
	<line class="st13" x1="373.4" y1="157.1" x2="369.3" y2="160.8"/>
	<line class="st13" x1="373.3" y1="162.4" x2="369.3" y2="166.2"/>
	<line class="st13" x1="483.1" y1="112.6" x2="483.1" y2="87.8"/>
</g>
</svg>
