<?xml version="1.0" encoding="utf-8"?>
<!-- Generator: Adobe Illustrator 23.1.0, SVG Export Plug-In . SVG Version: 6.00 Build 0)  -->
<svg version="1.1" id="Layer_1" xmlns="http://www.w3.org/2000/svg" xmlns:xlink="http://www.w3.org/1999/xlink" x="0px" y="0px"
	 viewBox="0 0 1080 250" style="enable-background:new 0 0 1080 250;" xml:space="preserve">
<style type="text/css">
	.st0{fill:#40B19A;}
</style>
<g>
	<path class="st0" d="M394.3,136.2c0,0,0-0.5,0-1s0-1,0-1c0-0.5,0-1,0.5-1c0-0.5,0-0.5,0-0.5l10.5-27.9c0-0.5,0.5-1,0.5-0.5
		c0,0,0.5,0.5,0.5,1s0,1,0,1.5s0,1,0,1.5c-1,2.5-2,5-3,7c-1,2.5-2,5-3,7.5s-2,5-2.5,7.5c-1,2.5-1.5,5-2,7.5c-0.5,0-0.5,0-0.5,0
		s-0.5,0-0.5-0.5l-0.5-0.5C394.3,136.7,394.3,136.7,394.3,136.2z"/>
	<path class="st0" d="M407.8,114.7L407.8,114.7c0-1,0.5-1,0.5-1.5s0-0.5,0.5-1c0-0.5,0-0.5,0.5-1c0.5-1,0.5-1.5,1-1.5s0.5,0,0.5,0
		c-0.5,0.5-0.5,1-0.5,1.5s0,1.5,0,2c0,1,0,1.5-0.5,2.5c0,1-0.5,1.5-0.5,2s-0.5,1-1,1s-0.5,0-1-0.5v-0.5c0-0.5,0-0.5,0-1s0-1,0-1
		C407.3,115.2,407.3,115.2,407.8,114.7z"/>
	<path class="st0" d="M443.1,135.7c0-0.5,0-1,0-1.5s0.5-1,0.5-1.5s0.5-1,0.5-1.5s0.5-1,1-1.5c0.5-1,1-1.5,1.5-2.5c0.5-1,1-2,1.5-2.5
		c0.5-1,0.5-1.5,1-1.5v-1c-0.5,0-1,0-2,0.5s-2,1.5-3.5,2.5s-2.5,2-4,3.5c-1.5,1.5-3,2.5-4,3.5s-2.5,2-3.5,3s-2,1-2.5,1s-1,0-1.5-0.5
		c0-0.5-0.5-1.5,0-2s0.5-2,0.5-3c0.5-1,0.5-2,1-3.5c0.5-1,0.5-2,1-2.5c0-0.5,0.5-1,0.5-1c-0.5,0-1.5,0-2,0c-0.5,0.5-1.5,1-2,1.5
		s-2,2-2.5,3c-0.5,1-1.5,2-2,3s-2,2-2.5,2.5c-0.5,1-1.5,1.5-2,2s-1,1-1.5,1s-1,0-1.5-0.5l0,0c0,0,0,0,0-0.5s0.5-1,0.5-1.5
		c0.5-0.5,0.5-1.5,1-2.5s1-1.5,1.5-2.5s1-2,1.5-2.5s1-1.5,1-2.5s0.5-1,1-1.5c0-0.5,0.5-0.5,0.5-1s0.5-1,1-1.5s0.5-1,1-1.5h1
		c0,0.5,0,1.5,0,2c-0.5,0.5-0.5,1.5-1,2s-0.5,1-1,2c-0.5,0.5-0.5,1,0,2c2.5-2.5,5-4,6.5-5.5s2.5-2,3-2s1,0,1,0.5s0,1.5-0.5,2.5
		c0,1-0.5,2.5-0.5,3.5c0,1.5-0.5,2.5,0,4h0.5c0,0,0.5-0.5,1-0.5c0.5-0.5,1-0.5,1.5-1c0.5-0.5,1-1,1.5-1c0.5-0.5,1-0.5,1-0.5
		c0-1,0.5-1,1-1.5s1.5-1,2-1.5s1.5-1,2-1.5s1-0.5,1-0.5s0.5-0.5,1-0.5c0.5-0.5,1-0.5,1.5-1s1-0.5,1.5-1s1-0.5,1-0.5
		c0.5-0.5,1-0.5,1.5-0.5s1,0,1,0.5s0.5,0.5,0.5,1s0,1,0,1.5c-1,1.5-1.5,3-2.5,4c-0.5,1.5-1.5,2.5-2,4c-0.5,1.5-1,3-1.5,4s-1,3-1,5
		h-0.5c0,0-0.5,0-0.5-0.5l-0.5-0.5C443.1,136.7,443.1,136.2,443.1,135.7z"/>
	<path class="st0" d="M475,146.6L475,146.6c-0.5-0.5-1-1-1-1c0-0.5,0-0.5,0-0.5s0-0.5,0.5-0.5c0.5,1,1.5,1,3,1c1,0,2.5-1,4-1.5
		c1.5-1,3-2,4-3.5s2.5-2.5,4-4c1-1.5,2-2.5,3-3.5c0.5-1,1-1.5,1-2c0,0,0,0-0.5-0.5s-0.5-0.5-1-0.5s-0.5-0.5-1-0.5s-0.5-0.5-0.5-0.5
		c0-0.5,0.5-0.5,1-0.5s1-0.5,1.5-0.5s1.5-0.5,2-0.5s1-0.5,1.5-0.5c1.5-2.5,3-4.5,4.5-6.5s2.5-4,3.5-5.5c1-2,2.5-4,3.5-6s2.5-4,4-6.5
		c0.5-0.5,0.5-1,1-0.5c0.5,0,0.5,1,0.5,1.5c0,1,0,2,0,3.5s0,2.5,0,4s0,3,0,4.5s0,3,0,4.5s0,2.5,0,3.5s0,1.5,0,2c0,1.5,0,3,0.5,4
		s0,2.5,0.5,3.5s0.5,2,1.5,3c0.5,1,1.5,2,3,3c-1,0.5-2,0.5-2.5,0s-1-1-1.5-2s-1-1.5-1-3s-0.5-2-1-3s-0.5-2-1-2.5s-0.5-1-1-1.5
		c0,0,0,0-0.5,0H510h-0.5H509c-0.5,0-1,0-1.5,0.5c-1,0-1.5,0.5-2.5,0.5s-2,0.5-2.5,0.5c-1,0-1.5,0.5-2,0.5c-1,0-1.5,0.5-2.5,1.5
		s-2,2-3,3s-2,2.5-3,3.5s-2,2.5-3,4s-2,2.5-3.5,3.5c-1,1-2,2-3.5,2.5c-1,0.5-2,1-3.5,1S476,147.6,475,146.6z M500.9,125.7
		L500.9,125.7c1,0,1,0,1,0c0.5,0,1.5,0,2-0.5c1,0,1.5-0.5,2.5-0.5s1.5-0.5,2.5-0.5s1-0.5,1.5-1c0-1.5,0.5-2.5,0.5-3.5s0.5-2,0.5-3.5
		c0-1,0.5-2.5,0.5-3.5s0-2.5,0.5-3.5c0-1,0-2,0-2.5c-0.5,0-1,0-1.5,1s-1.5,2.5-2,4c-1,1.5-2,3.5-3.5,6c-1.5,2-3,4.5-4.5,7
		C500.9,124.7,500.9,125.7,500.9,125.7z"/>
	<path class="st0" d="M520.3,137.7c0,0,0-0.5,0-1s0-1.5,0.5-2.5c0-1,0.5-2.5,0.5-3.5s0.5-2.5,1-3.5c0.5-1,0.5-2,1-3s0.5-1.5,1-2h0.5
		c0,0,0.5,0.5,0.5,1s0.5,0.5,0.5,1c0,0,0.5,0.5,0.5,0c1-1,2-2.5,3-3.5s2-2,3.5-3c0,0,0.5,0,1-0.5c0.5,0,1-0.5,2-0.5
		c0.5,0,1.5-0.5,2.5-0.5s1.5,0,2,0s1,0,1,0.5s0,0.5-0.5,1.5c-2,0-3.5,0.5-5.5,1.5c-1.5,1-3,2.5-4.5,4s-2.5,3.5-4,5
		c-1.5,1.5-2,3.5-3,5s-1.5,3-2,4s-1,1.5-1,1.5s0,0-0.5,0C519.8,139.1,520.3,137.7,520.3,137.7z"/>
	<path class="st0" d="M562.2,136.7c-1-1-2-2-2.5-3s-1-2.5-1-4h-0.5c-2.5,2-5,3.5-6.5,4.5s-3.5,1.5-5,2c-1.5,0-2.5,0-3-0.5
		s-1-1-1.5-2c0-1,0-2,0-3c0.5-1,1-2.5,1.5-3.5c0.5-1,1.5-2.5,2.5-3.5s2.5-2,4-2.5s3-1,5-1.5c2,0,3.5,0,5.5,0.5l0.5-0.5l6.5-12.9
		c1,0,1.5,0.5,1.5,1s0,1.5,0,2s-0.5,1.5-1,2s-0.5,1-0.5,1.5c0,0-0.5,0.5-0.5,1c-0.5,0.5-0.5,1-1,2c-0.5,0.5-1,1.5-1,2.5
		s-1,1.5-1,2.5c-0.5,0.5-0.5,1.5-1,2s-1,2.5-1,2.5c-0.5,1-1,2.5-1,3.5c0,1.5,0,2.5,0,4c0,0.5,0.5,1,1,1.5s1,0.5,1,1
		c0.5,0.5,1,0.5,1.5,1s1,0.5,1,1s-0.5,0.5-1,0.5s-1,0-1,0c-0.5,0-1-0.5-1-0.5C562.2,137.2,562.2,137.2,562.2,136.7z M544.2,134.7
		c0,0.5,0.5,0.5,1.5,0.5s2-0.5,3-1.5c1-0.5,2.5-1.5,3.5-2.5c1.5-1,2.5-2,3.5-3c1-1,2-2,2.5-3s1-1.5,0.5-2c-1-0.5-2-1-3.5-1
		c-1,0-2.5,0-3.5,0.5s-2.5,1-3.5,2s-2,1.5-3,2.5c-0.5,1-1.5,2-1.5,3.5S544.2,133.7,544.2,134.7z"/>
	<path class="st0" d="M570.1,136.7c-1-0.5-1-1.5-1.5-3c0-1,0-2.5,0.5-4s1-3,2-5c1-1.5,2-3.5,3-5s2.5-3,3.5-4s2.5-2,4-2.5
		s2.5-1,4-0.5c1,0,2.5,1,3.5,2c0.5,1,1,1.5,1,2.5s0,1.5,0,2.5s-0.5,1.5-1,2.5s-0.5,1.5-1,2.5s-0.5,2-1,2.5c0,1,0,2,0,3s0.5,2,1.5,2
		s2,0,3.5,0c1.5-0.5,2.5-1,4-1.5c1.5-1,2.5-1.5,4-2.5c1-1,2.5-1.5,4-3c1,0,1.5,0,1.5,0c0,0.5,0,0.5-0.5,1.5s-1,1.5-2,2s-2,1.5-3,2
		s-2.5,1.5-4,2s-2.5,1-4,1s-2.5,0-3.5,0s-2-1-3-1.5c-0.5-0.5-0.5-1-1-1c0-0.5-0.5-0.5-1-1c-0.5,0.5-1,1-1.5,1.5s-1.5,1.5-2,2
		s-1.5,1.5-2.5,2s-2,1-2.5,1.5s-2,0.5-3,0.5C572.1,138.2,571.1,137.7,570.1,136.7z M570.6,135.2c0.5,1,1,1.5,2,1.5s2-0.5,3.5-1.5
		s2.5-2,4-3.5s2.5-3,4-5c1-2,2-4,2.5-6s0.5-4,0.5-6c-1-0.5-1.5-0.5-3,0c-1,0.5-2.5,1.5-3.5,2.5c-1.5,1.5-2.5,2.5-4,4.5
		c-1.5,1.5-2.5,3.5-3.5,5c-1,2-1.5,3.5-2,5S570.6,134.2,570.6,135.2z"/>
	<path class="st0" d="M603.5,136.7c-0.5-0.5-1-1-1.5-2s-0.5-2-0.5-3s0-2,0-3.5c0-1,0.5-2,0.5-3.5c0-1,0.5-2,0.5-3s0.5-1.5,0.5-2h0.5
		c0,0,0.5,0,0.5,0.5l0.5,0.5c0,1,0,2,0,3.5c0,1,0,2-0.5,3c-0.5,1,0,2-0.5,3s0,2,0,3.5c0.5,0.5,1,0.5,1.5,0s2-1,3-2s2.5-2,3.5-3.5
		c1.5-1.5,2.5-3,4-4c1.5-1.5,2.5-2.5,3.5-4s2-2,3-3c1-0.5,1.5-1,1.5-1c0.5,0,0.5,1,0,2c-1,0.5-1.5,1.5-2.5,3s-2,3-3.5,4.5
		c-1,1.5-2.5,3-4,4.5s-2.5,3-4,4s-2.5,2-4,2.5C605.5,137.7,604.5,137.7,603.5,136.7z"/>
	<path class="st0" d="M628.4,136.7c-1-0.5-1-1.5-1.5-3c0-1,0-2.5,0.5-4s1-3,2-5c1-1.5,2-3.5,3-5s2.5-3,3.5-4s2.5-2,4-2.5
		s2.5-1,4-0.5c1,0,2.5,1,3.5,2c0.5,1,1,1.5,1,2.5s0,1.5,0,2.5s-0.5,1.5-1,2.5s-0.5,1.5-1,2.5s-0.5,2-1,2.5c0,1,0,2,0,3s0.5,2,1.5,2
		s2,0,3.5,0c1.5-0.5,2.5-1,4-1.5c1.5-1,2.5-1.5,4-2.5c1-1,2.5-1.5,4-3c1,0,1.5,0,1.5,0c0,0.5,0,0.5-0.5,1.5s-1,1.5-2,2s-2,1.5-3,2
		s-2.5,1.5-4,2s-2.5,1-4,1s-2.5,0-3.5,0s-2-1-3-1.5c-0.5-0.5-0.5-1-1-1c0-0.5-0.5-0.5-1-1c-0.5,0.5-1,1-1.5,1.5s-1.5,1.5-2,2
		s-1.5,1.5-2.5,2s-2,1-2.5,1.5s-2,0.5-3,0.5C630.4,138.2,629.4,137.7,628.4,136.7z M628.9,135.2c0.5,1,1,1.5,2,1.5s2-0.5,3.5-1.5
		s2.5-2,4-3.5s2.5-3,4-5c1-2,2-4,2.5-6s0.5-4,0.5-6c-1-0.5-1.5-0.5-3,0c-1,0.5-2.5,1.5-3.5,2.5c-1.5,1.5-2.5,2.5-4,4.5
		c-1.5,1.5-2.5,3.5-3.5,5c-1,2-1.5,3.5-2,5S628.9,134.2,628.9,135.2z"/>
	<path class="st0" d="M677.2,137.7c0-1,0-2,0.5-3s0.5-2,1-3s1-2,1.5-3c0.5-1,1-2,1.5-3s0.5-2,1-3c0-1,0-2,0-3c-1-0.5-1.5,0-2.5,0
		c-1,0.5-2,1-3.5,2c-1,1-2.5,2-3.5,3s-2.5,2.5-3.5,3.5c-1,1-2.5,2.5-3.5,3.5s-2,2-3,2.5s-1.5,1-2,1.5c-0.5,0-1,0-1-0.5
		c0,0,0-0.5,0.5-1s1-1.5,1.5-3s1-2.5,2-4c0.5-1.5,1.5-2.5,2-4s1-2,1.5-3s1-1.5,1-1.5c0.5,0.5,1,1,1,1.5s0,1-0.5,1.5
		c0,0.5-0.5,1-0.5,1.5s-0.5,1,0,1.5c0.5-0.5,1-1,2-1.5s2-1.5,3-2s2-1.5,3.5-2c1-0.5,2-1,3.5-1.5s2-0.5,2.5-0.5s1.5,0,2,0.5
		s0.5,1.5,0.5,2.5s-0.5,2.5-1.5,4.5c0,0-0.5,1-0.5,1.5c-0.5,1-1,1.5-1,2.5c-0.5,1-1,2-1,2.5c-0.5,1-0.5,1.5-0.5,1.5v0.5
		c0,0,0,0.5,0,1s0,1-0.5,1c0,0.5-0.5,0.5-0.5,1S678.2,138.2,677.2,137.7C677.7,137.7,677.2,137.7,677.2,137.7z"/>
</g>
</svg>
